<svg xmlns="http://www.w3.org/2000/svg" xmlns:svgjs="http://svgjs.com/svgjs" xmlns:xlink="http://www.w3.org/1999/xlink" preserveAspectRatio="xMidYMid meet" version="1.1" viewBox="0 0 400 523.242"><title>Chord diagram created with chordpic.com</title><circle cx="128" cy="24" r="14.4" fill="none" stroke="#000" stroke-width="2" class="open-string open-string-1"/><circle cx="224" cy="24" r="14.4" fill="none" stroke="#000" stroke-width="2" class="open-string open-string-3"/><circle cx="272" cy="24" r="14.4" fill="none" stroke="#000" stroke-width="2" class="open-string open-string-4"/><circle cx="320" cy="24" r="14.4" fill="none" stroke="#000" stroke-width="2" class="open-string open-string-5"/><line x1="79" x2="321" y1="53" y2="53" stroke="#000" stroke-width="10"/><line x1="80" x2="320" y1="142" y2="142" stroke="#000" stroke-width="2"/><line x1="80" x2="320" y1="226" y2="226" stroke="#000" stroke-width="2"/><line x1="80" x2="320" y1="310" y2="310" stroke="#000" stroke-width="2"/><line x1="80" x2="320" y1="394" y2="394" stroke="#000" stroke-width="2"/><line x1="80" x2="320" y1="478" y2="478" stroke="#000" stroke-width="2"/><line x1="80" x2="80" y1="58" y2="479" stroke="#000" stroke-width="2"/><line x1="128" x2="128" y1="58" y2="479" stroke="#000" stroke-width="2"/><line x1="176" x2="176" y1="58" y2="479" stroke="#000" stroke-width="2"/><line x1="224" x2="224" y1="58" y2="479" stroke="#000" stroke-width="2"/><line x1="272" x2="272" y1="58" y2="479" stroke="#000" stroke-width="2"/><line x1="320" x2="320" y1="58" y2="479" stroke="#000" stroke-width="2"/><circle cx="176" cy="184" r="15.6" fill="rgba(208, 2, 27, 1)" stroke="#000" stroke-width="0" class="finger finger-string-2 finger-fret-1 finger-string-2-fret-1 finger-circle"/><text x="176" y="184" fill="#fff" class="finger finger-string-2 finger-fret-1 finger-string-2-fret-1 finger-text" dominant-baseline="central" font-family="Arial, &quot;Helvetica Neue&quot;, Helvetica, sans-serif" font-size="24" text-anchor="middle">R</text><circle cx="80" cy="268" r="15.6" fill="#000" stroke="#000" stroke-width="0" class="finger finger-string-0 finger-fret-2 finger-string-0-fret-2 finger-circle"/><text x="80" y="268" fill="#fff" class="finger finger-string-0 finger-fret-2 finger-string-0-fret-2 finger-text" dominant-baseline="central" font-family="Arial, &quot;Helvetica Neue&quot;, Helvetica, sans-serif" font-size="24" text-anchor="middle">b3</text><text x="200" y="488.912" fill="rgba(0, 0, 0, 0.5)" class="watermark" font-family="Arial, &quot;Helvetica Neue&quot;, Helvetica, sans-serif" font-size="16" text-anchor="middle"><tspan x="200" dy="20.8">created with chordpic.com</tspan></text><circle cx="0" cy="0" r="0" fill="none" stroke="transparent" stroke-width="0" class="top-left"/><circle cx="400" cy="0" r="0" fill="none" stroke="transparent" stroke-width="0" class="top-right"/></svg>